<svg width="40" height="40" viewBox="0 0 40 40" fill="none" xmlns="http://www.w3.org/2000/svg">
<path fill-rule="evenodd" clip-rule="evenodd" d="M27.783 21.8833C30.0663 23.4333 31.6663 25.5333 31.6663 28.3333V33.3333H38.333V28.3333C38.333 24.7 32.383 22.55 27.783 21.8833Z" fill="white"/>
<path d="M14.9997 20.0001C18.6816 20.0001 21.6663 17.0153 21.6663 13.3334C21.6663 9.65152 18.6816 6.66675 14.9997 6.66675C11.3178 6.66675 8.33301 9.65152 8.33301 13.3334C8.33301 17.0153 11.3178 20.0001 14.9997 20.0001Z" fill="white"/>
<path fill-rule="evenodd" clip-rule="evenodd" d="M24.9998 20.0001C28.6832 20.0001 31.6665 17.0167 31.6665 13.3334C31.6665 9.65008 28.6832 6.66675 24.9998 6.66675C24.2165 6.66675 23.4832 6.83341 22.7832 7.06675C24.2174 8.84044 24.9998 11.0524 24.9998 13.3334C24.9998 15.6144 24.2174 17.8264 22.7832 19.6001C23.4832 19.8334 24.2165 20.0001 24.9998 20.0001ZM14.9998 21.6667C10.5498 21.6667 1.6665 23.9001 1.6665 28.3334V33.3334H28.3332V28.3334C28.3332 23.9001 19.4498 21.6667 14.9998 21.6667Z" fill="white"/>
</svg>
